<mxfile host="app.diagrams.net" modified="2023-09-25T07:08:47.674Z" agent="Mozilla/5.0 (Windows NT 10.0; Win64; x64) AppleWebKit/537.36 (KHTML, like Gecko) Chrome/116.0.0.0 Safari/537.36" version="21.8.0" etag="V7E6YAyIZmKcET4HgdN9" type="github">
  <diagram name="PÃ¡gina-1" id="tlSwstqPTxbVitZ69q3U">
    <mxGraphModel>
      <root>
        <mxCell id="0" />
        <mxCell id="1" parent="0" />
      </root>
    </mxGraphModel>
  </diagram>
</mxfile>
